<?xml version="1.0" encoding="utf-8"?>
<svg version="1.1" id="Слой_1" x="0px" y="0px" viewBox="0 0 273.04 90.43" style="enable-background:new 0 0 273.04 90.43;" xmlns="http://www.w3.org/2000/svg">
  <style type="text/css">
	.st0{fill:#315797;stroke:#315797;stroke-width:4.1003;stroke-linecap:round;stroke-linejoin:round;stroke-miterlimit:10;}
	.st1{fill:#315797;stroke:#315797;stroke-width:4;stroke-linecap:round;stroke-linejoin:round;stroke-miterlimit:10;}
	.st2{fill:#315797;stroke:#315797;stroke-width:3;stroke-miterlimit:10;}
	.st3{fill:#315797;stroke:#315797;stroke-width:2.7696;stroke-miterlimit:10;}
	.st4{fill:#00569C;}
</style>
  <g transform="matrix(1, 0, 0, 1, -2, -1)">
    <polygon class="st0" points="119.57 4.19 28.48 32.56 72.26 32.56 150.73 4.19"/>
    <path class="st1" d="M 242.92 32.56 C 233.3 29.55 232.86 29.41 220.61 25.64"/>
    <path class="st1" d="M 150.72 4.19 C 150.72 4.19 163.92 8.2 190.52 16.38"/>
    <path class="st2" d="M 4.05 47.35 C 7.87 46.87 12.4 46.5 17.37 46.5 C 26.37 46.5 32.78 48.26 37.03 51.59 C 41.35 54.92 43.87 59.65 43.87 66.25 C 43.87 72.91 41.42 78.37 36.89 82.12 C 32.35 85.94 24.87 88 15.43 88 C 10.97 88 7.22 87.82 4.05 87.52 L 4.05 47.35 L 4.05 47.35 Z M 10.31 83.46 C 11.89 83.7 14.2 83.76 16.65 83.76 C 30.04 83.76 37.32 77.46 37.32 66.43 C 37.39 56.8 30.91 50.68 17.66 50.68 C 14.42 50.68 11.97 50.92 10.32 51.23 L 10.31 83.46 L 10.31 83.46 Z"/>
    <path class="st2" d="M 107.87 66.8 C 107.87 80.85 97.72 88.31 85.33 88.31 C 72.51 88.31 63.51 79.95 63.51 67.59 C 63.51 54.63 73.09 46.14 86.05 46.14 C 99.3 46.14 107.87 54.68 107.87 66.8 Z M 70.21 67.46 C 70.21 76.18 75.83 84 85.69 84 C 95.63 84 101.24 76.31 101.24 67.04 C 101.24 58.92 96.2 50.44 85.76 50.44 C 75.4 50.44 70.21 58.5 70.21 67.46 L 70.21 67.46 Z"/>
    <path class="st2" d="M 171.3 70.45 C 170.94 64.76 170.51 57.91 170.58 52.82 L 170.36 52.82 C 168.7 57.61 166.69 62.69 164.24 68.33 L 155.67 88.14 L 150.92 88.14 L 143.07 68.69 C 140.77 62.93 138.82 57.66 137.45 52.82 L 137.31 52.82 C 137.17 57.91 136.81 64.75 136.37 70.87 L 135.07 88.38 L 129.09 88.38 L 132.47 47.55 L 140.46 47.55 L 148.74 67.3 C 150.76 72.33 152.41 76.81 153.64 81.05 L 153.86 81.05 C 155.08 76.93 156.81 72.45 158.97 67.3 L 167.61 47.55 L 175.6 47.55 L 178.62 88.38 L 172.5 88.38 L 171.3 70.45 L 171.3 70.45 Z"/>
    <rect x="202.69" y="46.88" class="st2" width="6.26" height="40.68"/>
    <polygon class="st3" points="202.69 2.46 202.69 25.31 208.95 25.37 208.95 2.46"/>
    <path class="st2" d="M 234.3 47.55 L 240.56 47.55 L 240.56 67.24 L 240.78 67.24 C 242.08 65.66 243.37 64.21 244.6 62.88 L 259.43 47.55 L 267.21 47.55 L 249.64 64.88 L 268.58 88.39 L 261.16 88.39 L 245.17 68.34 L 240.56 72.82 L 240.56 88.39 L 234.3 88.39 L 234.3 47.55 L 234.3 47.55 Z"/>
    <g>
      <path class="st4" d="M264.81,2.36c2.38,0,4.1,1.92,4.1,4.3c0,2.34-1.73,4.23-4.07,4.23c-2.41,0-4.17-1.89-4.17-4.27 C260.67,4.28,262.43,2.36,264.81,2.36z M264.81,1.29c-3.06,0-5.5,2.38-5.5,5.34c0,3.03,2.44,5.41,5.5,5.41 c3.09,0,5.47-2.38,5.47-5.41C270.28,3.66,267.9,1.29,264.81,1.29z M263.99,4.87c0.13-0.03,0.36-0.07,0.68-0.07 c0.78,0,1.14,0.33,1.14,0.81c0,0.55-0.55,0.78-1.24,0.78h-0.59V4.87z M263.96,7.28h0.59c0.68,0,1.01,0.26,1.11,0.85 c0.16,0.62,0.26,1.11,0.42,1.3h1.33c-0.13-0.2-0.23-0.52-0.39-1.33c-0.16-0.72-0.46-1.11-0.98-1.3V6.73 c0.65-0.2,1.11-0.65,1.11-1.24c0-0.52-0.23-0.94-0.52-1.17c-0.39-0.23-0.85-0.39-1.86-0.39c-0.88,0-1.56,0.06-2.05,0.16v5.34h1.24 V7.28z" style="fill: rgb(49, 87, 151);"/>
    </g>
  </g>
</svg>