<svg width="24" height="24" viewBox="0 0 24 24" fill="none" xmlns="http://www.w3.org/2000/svg">
<path d="M17.5297 14.6064C17.5297 15.6144 17.8165 16.0164 18.5665 16.0164C20.2381 16.0164 21.3025 13.8864 21.3025 10.344C21.3025 4.92956 17.3569 2.33756 12.4309 2.33756C7.36326 2.33756 2.75406 5.73596 2.75406 12.1584C2.75406 18.2928 6.78606 21.6336 12.9781 21.6336C15.0805 21.6336 16.4917 21.4032 18.6505 20.6832L19.1137 22.6116C16.9825 23.304 14.7049 23.5044 12.9493 23.5044C4.82766 23.5044 0.477661 19.0404 0.477661 12.1572C0.477661 5.21636 5.51886 0.493164 12.4597 0.493164C19.6885 0.493164 23.5177 4.81316 23.5177 10.1124C23.5177 14.6052 22.1077 18.0324 17.6725 18.0324C15.6553 18.0324 14.3317 17.226 14.1589 15.4392C13.6405 17.4264 12.2581 18.0324 10.3849 18.0324C7.87926 18.0324 5.77686 16.1016 5.77686 12.2148C5.77686 8.29796 7.62126 5.87876 10.9333 5.87876C12.6901 5.87876 13.7845 6.56996 14.2717 7.66436L15.1081 6.13796H17.5273V14.6064H17.5297ZM13.9885 10.8048C13.9885 9.22196 12.8065 8.55836 11.8273 8.55836C10.7617 8.55836 9.58206 9.42116 9.58206 11.9568C9.58206 13.9728 10.4749 15.096 11.8273 15.096C12.7777 15.096 13.9885 14.4912 13.9885 12.8208V10.8048Z" fill="white"/>
</svg>
