<svg width="22" height="15" viewBox="0 0 22 15" fill="none" xmlns="http://www.w3.org/2000/svg">
<path fill-rule="evenodd" clip-rule="evenodd" d="M7 6.5V8.9H10.95C10.8 9.95 9.75 11.9 7 11.9C4.6 11.9 2.65 9.9 2.65 7.5C2.65 5.1 4.6 3.1 7 3.1C8.35 3.1 9.25 3.7 9.8 4.2L11.7 2.35C10.45 1.2 8.9 0.5 7 0.5C3.15 0.5 0 3.65 0 7.5C0 11.35 3.15 14.5 7 14.5C11.05 14.5 13.7 11.65 13.7 7.65C13.7 7.2 13.65 6.85 13.6 6.5H7Z" fill="white"/>
<path fill-rule="evenodd" clip-rule="evenodd" d="M22 6.5H20V4.5H18V6.5H16V8.5H18V10.5H20V8.5H22V6.5Z" fill="white"/>
</svg>
