<svg width="14" height="24" viewBox="0 0 14 24" fill="none" xmlns="http://www.w3.org/2000/svg">
<path d="M6.95193 0C3.53586 0 0.756927 2.68252 0.756927 5.98027C0.756927 9.27777 3.53586 11.9591 6.95193 11.9591C10.3679 11.9591 13.1454 9.27777 13.1454 5.98027C13.1454 2.68252 10.3679 0 6.95193 0ZM6.95193 3.50388C8.36575 3.50388 9.51544 4.61532 9.51544 5.98027C9.51544 7.34464 8.36577 8.45522 6.95193 8.45522C5.53782 8.45522 4.38693 7.34466 4.38693 5.98027C4.38693 4.61532 5.53782 3.50388 6.95193 3.50388ZM1.84444 12.1625C1.23153 12.1533 0.628815 12.445 0.279183 12.9829C-0.25513 13.8024 0.000830567 14.8838 0.847695 15.3992C1.96787 16.0777 3.1834 16.5591 4.44395 16.8365L0.981951 20.1804C0.273231 20.865 0.273831 21.9737 0.982695 22.6582C1.33799 22.9999 1.80138 23.1709 2.26595 23.1709C2.73004 23.1709 3.19499 22.9996 3.54921 22.6575L6.95047 19.3723L10.3547 22.6575C11.0628 23.3419 12.2111 23.3419 12.9205 22.6575C13.6295 21.9734 13.6295 20.8635 12.9205 20.1804L9.45695 16.8373C10.7179 16.5598 11.9338 16.0782 13.0532 15.3992C13.9018 14.8838 14.1581 13.8013 13.624 12.983C13.0892 12.1633 11.9696 11.9164 11.1204 12.4326C8.58431 13.9728 5.31652 13.9718 2.78118 12.4326C2.48934 12.2552 2.16549 12.1674 1.84444 12.1626V12.1625Z" fill="white"/>
</svg>
